<svg xmlns:x="http://ns.adobe.com/Extensibility/1.0/" xmlns:i="http://ns.adobe.com/AdobeIllustrator/10.0/" xmlns:graph="http://ns.adobe.com/Graphs/1.0/" xmlns="http://www.w3.org/2000/svg" xmlns:xlink="http://www.w3.org/1999/xlink" version="1.1" x="0px" y="0px" viewBox="0 0 64 80" enable-background="new 0 0 64 64" xml:space="preserve"><metadata><sfw xmlns="http://ns.adobe.com/SaveForWeb/1.0/"><slices/><sliceSourceBounds height="16384" width="16389" x="-8165" y="-8160" bottomLeftOrigin="true"/></sfw></metadata><g><g><path d="M30,29.9c0.552,0,1-0.448,1-1V22c0-0.552-0.448-1-1-1c-2.481,0-4.5-2.019-4.5-4.5S27.519,12,30,12c0.552,0,1-0.448,1-1V8    c0-0.552-0.448-1-1-1H8C7.448,7,7,7.448,7,8v20.9c0,0.552,0.448,1,1,1h4.577c0.482,3.111,3.179,5.5,6.423,5.5    s5.941-2.389,6.423-5.5H30z M23.5,28.9c0,2.481-2.019,4.5-4.5,4.5s-4.5-2.019-4.5-4.5c0-0.552-0.448-1-1-1H9V9h20v1.077    c-3.111,0.482-5.5,3.179-5.5,6.423s2.389,5.941,5.5,6.423V27.9h-4.5C23.948,27.9,23.5,28.348,23.5,28.9z"/><path d="M56.707,40.849l-2.176-2.176c0.812-1.105,1.251-2.437,1.251-3.835c0-1.736-0.677-3.369-1.904-4.596    c-1.228-1.228-2.859-1.904-4.596-1.904c-1.397,0-2.729,0.439-3.835,1.251l-4.297-4.296c-0.391-0.391-1.023-0.391-1.414,0    l-4.667,4.667c-0.188,0.188-0.293,0.442-0.293,0.707s0.105,0.52,0.293,0.707c0.85,0.85,1.318,1.98,1.318,3.183    c0,1.201-0.469,2.332-1.318,3.182s-1.979,1.317-3.182,1.317c-1.202,0-2.332-0.468-3.182-1.317c-0.391-0.391-1.023-0.391-1.414,0    l-2.334,2.334c-0.188,0.188-0.293,0.441-0.293,0.707s0.105,0.52,0.293,0.707l15.556,15.556c0.195,0.195,0.451,0.293,0.707,0.293    s0.512-0.098,0.707-0.293l14.779-14.778C56.895,42.075,57,41.821,57,41.556S56.895,41.036,56.707,40.849z M41.221,54.92    L27.079,40.778l0.974-0.974c1.106,0.812,2.438,1.25,3.835,1.25c1.736,0,3.368-0.676,4.596-1.903s1.903-2.859,1.904-4.596    c0-1.398-0.438-2.729-1.251-3.836l3.307-3.306l4.243,4.243c0.375,0.375,1.039,0.375,1.414,0c0.85-0.85,1.979-1.318,3.182-1.318    s2.332,0.468,3.182,1.318c0.851,0.85,1.318,1.979,1.318,3.182s-0.468,2.332-1.318,3.182c-0.188,0.188-0.293,0.441-0.293,0.707    c0,0.265,0.105,0.52,0.293,0.707l2.122,2.122L41.221,54.92z"/></g></g><text x="0" y="79" fill="#000000" font-size="5px" font-weight="bold" font-family="'Helvetica Neue', Helvetica, Arial-Unicode, Arial, Sans-serif">Created by Ralf Schmitzer</text><text x="0" y="84" fill="#000000" font-size="5px" font-weight="bold" font-family="'Helvetica Neue', Helvetica, Arial-Unicode, Arial, Sans-serif">from the Noun Project</text></svg>